<svg id="calendar_small_pink" data-name="calendar_small pink" xmlns="http://www.w3.org/2000/svg" width="58.181" height="59.696" viewBox="0 0 58.181 59.696">
  <path id="Path_6186" data-name="Path 6186" d="M22.777,34.9H16.558A1.591,1.591,0,0,0,14.9,36.559a1.681,1.681,0,0,0,1.657,1.657h6.219a1.659,1.659,0,1,0,0-3.318Z" transform="translate(8.341 13.325)" fill="#dbb492"/>
  <path id="Path_6187" data-name="Path 6187" d="M6.558,38.318h8.569a1.681,1.681,0,0,0,1.657-1.657A1.782,1.782,0,0,0,15.127,35H6.558a1.659,1.659,0,0,0,0,3.318Z" transform="translate(1.87 13.364)" fill="#dbb492"/>
  <path id="Path_6188" data-name="Path 6188" d="M52.65,2.625H49.468V1.657A1.681,1.681,0,0,0,47.813,0a1.782,1.782,0,0,0-1.668,1.657v.968h-6.07V1.657A1.809,1.809,0,0,0,38.279,0a1.681,1.681,0,0,0-1.657,1.657v.968H30.54V1.657A1.681,1.681,0,0,0,28.88,0a1.782,1.782,0,0,0-1.657,1.657v.968H21.142V1.657A1.681,1.681,0,0,0,19.484,0a1.782,1.782,0,0,0-1.657,1.657v.968H11.746V1.657A1.809,1.809,0,0,0,9.95,0,1.681,1.681,0,0,0,8.293,1.657v.968H5.667A5.813,5.813,0,0,0,0,8.431V54.045A5.691,5.691,0,0,0,5.665,59.7H52.509a5.691,5.691,0,0,0,5.665-5.665V8.431A5.521,5.521,0,0,0,52.65,2.625ZM55,53.894a2.421,2.421,0,0,1-2.35,2.35H5.665a2.421,2.421,0,0,1-2.35-2.35V15.477H54.859Zm0-41.87H3.448V8.431A2.421,2.421,0,0,1,5.8,6.081H8.285v.968a1.659,1.659,0,0,0,3.318,0V6.081h6.086v.968a1.659,1.659,0,0,0,3.318,0V6.081h6.081v.968a1.659,1.659,0,1,0,3.318,0V6.081h6.081v.968a1.681,1.681,0,0,0,1.657,1.657,1.939,1.939,0,0,0,1.933-1.657V6.081h6.068v.968a1.659,1.659,0,1,0,3.318,0V6.081h3.182a2.421,2.421,0,0,1,2.35,2.35v3.591Z" transform="translate(0 0)" fill="#dbb492"/>
  <path id="Path_6189" data-name="Path 6189" d="M16.557,17.918a1.659,1.659,0,0,0,0-3.318A1.681,1.681,0,0,0,14.9,16.257,1.782,1.782,0,0,0,16.557,17.918Z" transform="translate(5.69 5.576)" fill="#dbb492"/>
  <path id="Path_6190" data-name="Path 6190" d="M21.558,17.916a1.591,1.591,0,0,0,1.657-1.657A1.681,1.681,0,0,0,21.558,14.6a1.659,1.659,0,1,0,0,3.318Z" transform="translate(7.598 5.578)" fill="#dbb492"/>
  <path id="Path_6191" data-name="Path 6191" d="M26.558,17.918A1.659,1.659,0,1,0,24.9,16.259a1.659,1.659,0,0,0,1.659,1.659Z" transform="translate(9.509 5.576)" fill="#dbb492"/>
  <path id="Path_6192" data-name="Path 6192" d="M36.458,17.918A1.659,1.659,0,1,0,34.8,16.259,1.659,1.659,0,0,0,36.458,17.918Z" transform="translate(13.288 5.576)" fill="#dbb492"/>
  <path id="Path_6193" data-name="Path 6193" d="M31.458,17.917a1.591,1.591,0,0,0,1.657-1.657A1.681,1.681,0,0,0,31.458,14.6,1.591,1.591,0,0,0,29.8,16.259,1.681,1.681,0,0,0,31.458,17.917Z" transform="translate(11.379 5.577)" fill="#dbb492"/>
  <path id="Path_6194" data-name="Path 6194" d="M26.557,22.716a1.681,1.681,0,0,0,1.657-1.657,1.657,1.657,0,1,0-1.657,1.657Z" transform="translate(9.51 7.411)" fill="#dbb492"/>
  <path id="Path_6195" data-name="Path 6195" d="M31.458,22.717a1.681,1.681,0,0,0,1.658-1.657A1.782,1.782,0,0,0,31.458,19.4,1.591,1.591,0,0,0,29.8,21.059,1.681,1.681,0,0,0,31.458,22.717Z" transform="translate(11.379 7.41)" fill="#dbb492"/>
  <path id="Path_6196" data-name="Path 6196" d="M21.558,22.716a1.681,1.681,0,0,0,1.658-1.657A1.782,1.782,0,0,0,21.558,19.4a1.659,1.659,0,1,0,0,3.318Z" transform="translate(7.598 7.411)" fill="#dbb492"/>
  <path id="Path_6197" data-name="Path 6197" d="M36.457,22.716a1.681,1.681,0,0,0,1.657-1.657,1.657,1.657,0,1,0-1.657,1.657Z" transform="translate(13.289 7.411)" fill="#dbb492"/>
  <path id="Path_6198" data-name="Path 6198" d="M26.557,27.616a1.681,1.681,0,0,0,1.657-1.657,1.657,1.657,0,1,0-1.657,1.657Z" transform="translate(9.51 9.281)" fill="#dbb492"/>
  <path id="Path_6199" data-name="Path 6199" d="M31.458,27.617a1.681,1.681,0,0,0,1.658-1.657A1.782,1.782,0,0,0,31.458,24.3,1.591,1.591,0,0,0,29.8,25.959a1.782,1.782,0,0,0,1.658,1.657Z" transform="translate(11.379 9.28)" fill="#dbb492"/>
  <path id="Path_6200" data-name="Path 6200" d="M36.457,27.616a1.681,1.681,0,0,0,1.657-1.657,1.657,1.657,0,1,0-1.657,1.658Z" transform="translate(13.289 9.281)" fill="#dbb492"/>
  <path id="Path_6201" data-name="Path 6201" d="M11.656,22.717a1.681,1.681,0,0,0,1.657-1.657A1.782,1.782,0,0,0,11.656,19.4,1.591,1.591,0,0,0,10,21.059a1.525,1.525,0,0,0,1.657,1.658Z" transform="translate(3.821 7.41)" fill="#dbb492"/>
  <path id="Path_6202" data-name="Path 6202" d="M16.559,22.717a1.681,1.681,0,0,0,1.657-1.657,1.659,1.659,0,0,0-3.318,0A1.681,1.681,0,0,0,16.559,22.717Z" transform="translate(5.688 7.41)" fill="#dbb492"/>
  <path id="Path_6203" data-name="Path 6203" d="M6.657,22.716a1.681,1.681,0,0,0,1.657-1.657,1.657,1.657,0,1,0-1.657,1.657Z" transform="translate(1.908 7.411)" fill="#dbb492"/>
  <path id="Path_6204" data-name="Path 6204" d="M21.559,27.617a1.681,1.681,0,0,0,1.658-1.657,1.659,1.659,0,1,0-3.318,0,1.681,1.681,0,0,0,1.66,1.658Z" transform="translate(7.597 9.28)" fill="#dbb492"/>
  <path id="Path_6205" data-name="Path 6205" d="M26.558,32.417a1.681,1.681,0,0,0,1.658-1.657,1.659,1.659,0,0,0-3.318,0,1.525,1.525,0,0,0,1.66,1.657Z" transform="translate(9.509 11.113)" fill="#dbb492"/>
  <path id="Path_6206" data-name="Path 6206" d="M31.458,32.419a1.659,1.659,0,1,0,0-3.318A1.591,1.591,0,0,0,29.8,30.758a1.681,1.681,0,0,0,1.657,1.66Z" transform="translate(11.379 11.111)" fill="#dbb492"/>
  <path id="Path_6207" data-name="Path 6207" d="M21.559,32.417a1.681,1.681,0,0,0,1.658-1.657,1.659,1.659,0,0,0-3.318,0,1.681,1.681,0,0,0,1.66,1.657Z" transform="translate(7.597 11.113)" fill="#dbb492"/>
  <path id="Path_6208" data-name="Path 6208" d="M6.658,27.616a1.681,1.681,0,0,0,1.657-1.657A1.782,1.782,0,0,0,6.658,24.3,1.681,1.681,0,0,0,5,25.956a1.591,1.591,0,0,0,1.657,1.66Z" transform="translate(1.907 9.281)" fill="#dbb492"/>
  <path id="Path_6209" data-name="Path 6209" d="M16.557,27.616a1.681,1.681,0,0,0,1.657-1.657,1.657,1.657,0,1,0-1.657,1.658Z" transform="translate(5.69 9.281)" fill="#dbb492"/>
  <path id="Path_6210" data-name="Path 6210" d="M11.659,27.617a1.681,1.681,0,0,0,1.657-1.657,1.659,1.659,0,0,0-3.318,0,1.681,1.681,0,0,0,1.66,1.658Z" transform="translate(3.818 9.28)" fill="#dbb492"/>
  <path id="Path_6211" data-name="Path 6211" d="M16.558,32.416a1.591,1.591,0,0,0,1.657-1.657A1.681,1.681,0,0,0,16.558,29.1a1.659,1.659,0,1,0,0,3.318Z" transform="translate(5.689 11.114)" fill="#dbb492"/>
  <path id="Path_6212" data-name="Path 6212" d="M11.657,32.416a1.591,1.591,0,0,0,1.657-1.657A1.681,1.681,0,0,0,11.657,29.1,1.782,1.782,0,0,0,10,30.759,1.681,1.681,0,0,0,11.657,32.416Z" transform="translate(3.82 11.114)" fill="#dbb492"/>
  <path id="Path_6213" data-name="Path 6213" d="M6.66,32.417a1.591,1.591,0,0,0,1.657-1.657,1.659,1.659,0,1,0-3.318,0,1.591,1.591,0,0,0,1.66,1.657Z" transform="translate(1.906 11.113)" fill="#dbb492"/>
</svg>
